# xmcd CD Database Entry
#
# Track frame offsets:
# 150
# 18672
# 34654
# 55283
# 75203
# 90620
# 111574
# 135809
# 153611
# 175408
# 193035
# 236249
#
# Disc length: 3376 seconds
#
# Revision: 3
# Processed by: cddbd v1.5PL3 Copyright (c) Steve Scherf et al.
# Submitted via: tcd 2.0b
#
DISCID=990d2e0c
DTITLE=Natalie Imbriglia - Left in the middle
DYEAR=1900
DGENRE=
TTITLE0=torn
TTITLE1=
TTITLE2=
TTITLE3=
TTITLE4=
TTITLE5=
TTITLE6=
TTITLE7=
TTITLE8=
TTITLE9=
TTITLE10=
TTITLE11=
EXTD=
EXTT0=
EXTT1=
EXTT2=
EXTT3=
EXTT4=
EXTT5=
EXTT6=
EXTT7=
EXTT8=
EXTT9=
EXTT10=
EXTT11=
PLAYORDER=
